<?xml version="1.0" standalone="no"?>
<svg version="1.1" preserveAspectRatio="none" viewBox="0 0 24 24" class="ng-element" data-id="cda521eef84fe22634cf3ff440bd3e8c" style="fill: rgb(247, 64, 189); width: 29px; height: 29px;" xmlns="http://www.w3.org/2000/svg"><g><path xmlns:default="http://www.w3.org/2000/svg" id="history" d="M20,12c0-1.07-0.22-2.12-0.64-3.1c-0.8-1.93-2.33-3.46-4.26-4.26C13.16,3.8,10.96,3.78,9,4.58  C8.07,4.96,7.22,5.52,6.49,6.21L5.14,4.87C4.96,4.66,4.67,4.6,4.42,4.72C4.16,4.81,3.99,5.06,4,5.34V10  c0.01,0.37,0.3,0.66,0.67,0.67h4.66c0.27,0.01,0.52-0.16,0.61-0.42c0.13-0.24,0.07-0.54-0.14-0.72L8.38,8.1C8.85,7.64,9.4,7.26,10,7  c0.64-0.25,1.32-0.38,2-0.37c0.71,0,1.42,0.14,2.07,0.42c1.28,0.54,2.3,1.56,2.84,2.84c0.56,1.32,0.56,2.81,0,4.13  c-0.54,1.28-1.56,2.3-2.84,2.84c-0.65,0.28-1.36,0.42-2.07,0.42c-1.65,0.01-3.21-0.76-4.21-2.07c-0.06-0.07-0.15-0.12-0.24-0.12  c-0.1,0-0.19,0.03-0.26,0.09l-1.42,1.48c-0.06,0.06-0.09,0.13-0.09,0.21c0,0.08,0.02,0.16,0.07,0.23c0.74,0.91,1.68,1.64,2.75,2.14  C9.66,19.74,10.82,20,12,20c1.07,0,2.12-0.22,3.1-0.64c1.93-0.8,3.46-2.33,4.26-4.26C19.78,14.12,20,13.07,20,12L20,12z M13.24,8.76  C13.18,8.7,13.09,8.67,13,8.67h-0.67C12.15,8.67,12.01,8.8,12,8.98C12,8.99,12,9,12,9v3.66H9.67c-0.18-0.01-0.32,0.13-0.33,0.31  c0,0.01,0,0.01,0,0.02v0.67c-0.01,0.18,0.13,0.32,0.31,0.33c0.01,0,0.01,0,0.02,0H13c0.18,0.01,0.32-0.13,0.33-0.31  c0-0.01,0-0.01,0-0.02V9C13.34,8.91,13.3,8.83,13.24,8.76z" style="fill: rgb(247, 64, 189);"/></g></svg>